<?xml version="1.0" encoding="us-ascii" standalone="no"?><svg xmlns="http://www.w3.org/2000/svg" xmlns:xlink="http://www.w3.org/1999/xlink" contentStyleType="text/css" height="386px" preserveAspectRatio="none" style="width:691px;height:386px;background:#FFFFFF;" version="1.1" viewBox="0 0 691 386" width="691px" zoomAndPan="magnify"><defs/><g><!--class Medicine--><g id="elem_Medicine"><rect codeLine="5" fill="#F1F1F1" height="107.4844" id="Medicine" rx="2.5" ry="2.5" style="stroke:#181818;stroke-width:0.5;" width="172" x="27.5" y="64.04"/><text fill="#000000" font-family="sans-serif" font-size="14" lengthAdjust="spacing" textLength="63" x="82" y="82.0351">medicine</text><line style="stroke:#181818;stroke-width:0.5;" x1="28.5" x2="198.5" y1="90.3369" y2="90.3369"/><text fill="#000000" font-family="sans-serif" font-size="14" lengthAdjust="spacing" textLength="58" x="33.5" y="107.332">+uuid id</text><line style="stroke:#181818;stroke-width:1.0;" x1="28.5" x2="198.5" y1="114.6338" y2="114.6338"/><text fill="#000000" font-family="sans-serif" font-size="14" lengthAdjust="spacing" textLength="139" x="33.5" y="131.6289">name : varchar(255)</text><text fill="#000000" font-family="sans-serif" font-size="14" lengthAdjust="spacing" textLength="160" x="33.5" y="147.9257">category : varchar(100)</text><text fill="#000000" font-family="sans-serif" font-size="14" lengthAdjust="spacing" textLength="95" x="33.5" y="164.2226">price : double</text></g><!--class Coupon--><g id="elem_Coupon"><rect codeLine="13" fill="#F1F1F1" height="221.5625" id="Coupon" rx="2.5" ry="2.5" style="stroke:#181818;stroke-width:0.5;" width="288" x="234.5" y="7"/><text fill="#000000" font-family="sans-serif" font-size="14" lengthAdjust="spacing" textLength="53" x="352" y="24.9951">coupon</text><line style="stroke:#181818;stroke-width:0.5;" x1="235.5" x2="521.5" y1="33.2969" y2="33.2969"/><text fill="#000000" font-family="sans-serif" font-size="14" lengthAdjust="spacing" textLength="198" x="240.5" y="50.292">+varchar(100) coupon_code</text><line style="stroke:#181818;stroke-width:1.0;" x1="235.5" x2="521.5" y1="57.5938" y2="57.5938"/><text fill="#000000" font-family="sans-serif" font-size="14" lengthAdjust="spacing" textLength="164" x="240.5" y="74.5889">expiry_date : timestamp</text><text fill="#000000" font-family="sans-serif" font-size="14" lengthAdjust="spacing" textLength="220" x="240.5" y="90.8857">usage_type : usage_type_enum</text><text fill="#000000" font-family="sans-serif" font-size="14" lengthAdjust="spacing" textLength="173" x="240.5" y="107.1826">min_order_value : double</text><text fill="#000000" font-family="sans-serif" font-size="14" lengthAdjust="spacing" textLength="154" x="240.5" y="123.4795">valid_from : timestamp</text><text fill="#000000" font-family="sans-serif" font-size="14" lengthAdjust="spacing" textLength="152" x="240.5" y="139.7764">valid_until : timestamp</text><text fill="#000000" font-family="sans-serif" font-size="14" lengthAdjust="spacing" textLength="254" x="240.5" y="156.0732">discount_type : discount_type_enum</text><text fill="#000000" font-family="sans-serif" font-size="14" lengthAdjust="spacing" textLength="164" x="240.5" y="172.3701">discount_value : double</text><text fill="#000000" font-family="sans-serif" font-size="14" lengthAdjust="spacing" textLength="261" x="240.5" y="188.667">terms_and_conditions : varchar(1000)</text><text fill="#000000" font-family="sans-serif" font-size="14" lengthAdjust="spacing" textLength="176" x="240.5" y="204.9639">max_usage_per_user : int</text><text fill="#000000" font-family="sans-serif" font-size="14" lengthAdjust="spacing" textLength="276" x="240.5" y="221.2607">discount_target : discount_target_enum</text></g><!--class CouponMedicineMap--><g id="elem_CouponMedicineMap"><rect codeLine="28" fill="#F1F1F1" height="74.8906" id="CouponMedicineMap" rx="2.5" ry="2.5" style="stroke:#181818;stroke-width:0.5;" width="219" x="7" y="296.71"/><text fill="#000000" font-family="sans-serif" font-size="14" lengthAdjust="spacing" textLength="160" x="36.5" y="314.7051">coupon_medicine_map</text><line style="stroke:#181818;stroke-width:0.5;" x1="8" x2="225" y1="323.0069" y2="323.0069"/><text fill="#000000" font-family="sans-serif" font-size="14" lengthAdjust="spacing" textLength="137" x="13" y="340.002">+medicine_id : uuid</text><line style="stroke:#181818;stroke-width:0.5;" x1="8" x2="225" y1="347.3038" y2="347.3038"/><text fill="#000000" font-family="sans-serif" font-size="14" lengthAdjust="spacing" textLength="207" x="13" y="364.2989">+coupon_code : varchar(100)</text></g><!--class CouponCategoryMap--><g id="elem_CouponCategoryMap"><rect codeLine="33" fill="#F1F1F1" height="74.8906" id="CouponCategoryMap" rx="2.5" ry="2.5" style="stroke:#181818;stroke-width:0.5;" width="230" x="261.5" y="296.71"/><text fill="#000000" font-family="sans-serif" font-size="14" lengthAdjust="spacing" textLength="157" x="298" y="314.7051">coupon_category_map</text><line style="stroke:#181818;stroke-width:0.5;" x1="262.5" x2="490.5" y1="323.0069" y2="323.0069"/><line style="stroke:#181818;stroke-width:0.5;" x1="262.5" x2="490.5" y1="331.0069" y2="331.0069"/><text fill="#000000" font-family="sans-serif" font-size="14" lengthAdjust="spacing" textLength="207" x="267.5" y="348.002">+coupon_code : varchar(100)</text><text fill="#000000" font-family="sans-serif" font-size="14" lengthAdjust="spacing" textLength="218" x="267.5" y="364.2989">+category_name : varchar(100)</text></g><!--class CouponUsage--><g id="elem_CouponUsage"><rect codeLine="38" fill="#F1F1F1" height="91.1875" id="CouponUsage" rx="2.5" ry="2.5" style="stroke:#181818;stroke-width:0.5;" width="158" x="526.5" y="288.56"/><text fill="#000000" font-family="sans-serif" font-size="14" lengthAdjust="spacing" textLength="103" x="554" y="306.5551">coupon_usage</text><line style="stroke:#181818;stroke-width:0.5;" x1="527.5" x2="683.5" y1="314.8569" y2="314.8569"/><text fill="#000000" font-family="sans-serif" font-size="14" lengthAdjust="spacing" textLength="105" x="532.5" y="331.852">+user_id : uuid</text><text fill="#000000" font-family="sans-serif" font-size="14" lengthAdjust="spacing" textLength="146" x="532.5" y="348.1489">+coupon_code : text</text><text fill="#000000" font-family="sans-serif" font-size="14" lengthAdjust="spacing" textLength="73" x="532.5" y="364.4457">usage : int</text><line style="stroke:#181818;stroke-width:0.5;" x1="527.5" x2="683.5" y1="371.7475" y2="371.7475"/></g><!--link Coupon to CouponMedicineMap--><g id="link_Coupon_CouponMedicineMap"><path codeLine="45" d="M226.08,200.75 C213.11,200.75 212.75,200.75 212.75,200.75 C212.75,200.75 212.75,238.84 212.75,278.28 " fill="none" id="Coupon-CouponMedicineMap" style="stroke:#181818;stroke-width:1.0;"/><line style="stroke:#181818;stroke-width:1.0;" x1="230.08" x2="230.08" y1="196.75" y2="204.75"/><line style="stroke:#181818;stroke-width:1.0;" x1="227.08" x2="227.08" y1="196.75" y2="204.75"/><line style="stroke:#181818;stroke-width:1.0;" x1="226.08" x2="234.08" y1="200.75" y2="200.75"/><line style="stroke:#181818;stroke-width:1.0;" x1="212.75" x2="218.75" y1="288.28" y2="296.28"/><line style="stroke:#181818;stroke-width:1.0;" x1="212.75" x2="206.75" y1="288.28" y2="296.28"/><line style="stroke:#181818;stroke-width:1.0;" x1="212.75" x2="212.75" y1="288.28" y2="296.28"/><ellipse cx="212.75" cy="282.28" fill="none" rx="4" ry="4" style="stroke:#181818;stroke-width:1.0;"/><text fill="#000000" font-family="sans-serif" font-size="13" lengthAdjust="spacing" textLength="23" x="188.75" y="233.9169">has</text></g><!--link Medicine to CouponMedicineMap--><g id="link_Medicine_CouponMedicineMap"><path codeLine="46" d="M113.5,179.82 C113.5,218.63 113.5,243.95 113.5,278.41 " fill="none" id="Medicine-CouponMedicineMap" style="stroke:#181818;stroke-width:1.0;"/><line style="stroke:#181818;stroke-width:1.0;" x1="109.5" x2="117.5" y1="175.82" y2="175.82"/><line style="stroke:#181818;stroke-width:1.0;" x1="109.5" x2="117.5" y1="178.82" y2="178.82"/><line style="stroke:#181818;stroke-width:1.0;" x1="113.5" x2="113.5" y1="179.82" y2="171.82"/><line style="stroke:#181818;stroke-width:1.0;" x1="113.5" x2="119.5" y1="288.41" y2="296.41"/><line style="stroke:#181818;stroke-width:1.0;" x1="113.5" x2="107.5" y1="288.41" y2="296.41"/><line style="stroke:#181818;stroke-width:1.0;" x1="113.5" x2="113.5" y1="288.41" y2="296.41"/><ellipse cx="113.5" cy="282.41" fill="none" rx="4" ry="4" style="stroke:#181818;stroke-width:1.0;"/><text fill="#000000" font-family="sans-serif" font-size="13" lengthAdjust="spacing" textLength="54" x="58.5" y="230.1869">linked to</text></g><!--link Coupon to CouponCategoryMap--><g id="link_Coupon_CouponCategoryMap"><path codeLine="48" d="M376.5,236.82 C376.5,261.31 376.5,259.6 376.5,278.68 " fill="none" id="Coupon-CouponCategoryMap" style="stroke:#181818;stroke-width:1.0;"/><line style="stroke:#181818;stroke-width:1.0;" x1="372.5" x2="380.5" y1="232.82" y2="232.82"/><line style="stroke:#181818;stroke-width:1.0;" x1="372.5" x2="380.5" y1="235.82" y2="235.82"/><line style="stroke:#181818;stroke-width:1.0;" x1="376.5" x2="376.5" y1="236.82" y2="228.82"/><line style="stroke:#181818;stroke-width:1.0;" x1="376.5" x2="382.5" y1="288.68" y2="296.68"/><line style="stroke:#181818;stroke-width:1.0;" x1="376.5" x2="370.5" y1="288.68" y2="296.68"/><line style="stroke:#181818;stroke-width:1.0;" x1="376.5" x2="376.5" y1="288.68" y2="296.68"/><ellipse cx="376.5" cy="282.68" fill="none" rx="4" ry="4" style="stroke:#181818;stroke-width:1.0;"/><text fill="#000000" font-family="sans-serif" font-size="13" lengthAdjust="spacing" textLength="23" x="352.5" y="258.8169">has</text></g><!--link Coupon to CouponUsage--><g id="link_Coupon_CouponUsage"><path codeLine="49" d="M507,236.59 C507,271.32 507,292.75 507,292.75 C507,292.75 497.01,292.75 508.46,292.75 " fill="none" id="Coupon-CouponUsage" style="stroke:#181818;stroke-width:1.0;"/><line style="stroke:#181818;stroke-width:1.0;" x1="503" x2="511" y1="232.59" y2="232.59"/><line style="stroke:#181818;stroke-width:1.0;" x1="503" x2="511" y1="235.59" y2="235.59"/><line style="stroke:#181818;stroke-width:1.0;" x1="507" x2="507" y1="236.59" y2="228.59"/><line style="stroke:#181818;stroke-width:1.0;" x1="518.46" x2="526.46" y1="292.75" y2="286.75"/><line style="stroke:#181818;stroke-width:1.0;" x1="518.46" x2="526.46" y1="292.75" y2="298.75"/><line style="stroke:#181818;stroke-width:1.0;" x1="518.46" x2="526.46" y1="292.75" y2="292.75"/><ellipse cx="512.46" cy="292.75" fill="none" rx="4" ry="4" style="stroke:#181818;stroke-width:1.0;"/><text fill="#000000" font-family="sans-serif" font-size="13" lengthAdjust="spacing" textLength="63" x="443" y="266.4669">tracked in</text></g><!--SRC=[ZLExRXin4EplAnPkdC0Ge0HmeovmbS9D3DV4cjn82nyV89U653l_djKz54ed16aEt0TdXhDxEtO4bhFjgIkl719czD1p83aaWfXb5vk2xR6KRoAPNwhGTnl34_yYM7ST1M4vm8qdnrQltm0MU9m2UEy0xcfb1-pqk5hf9w0dsC0RPhl3_Edh_VrdpLeKsiPyQ2fVrkjZ9MMsnmikrXTL-_ilfuqrnJ0mFWp7aQ-z3sEFiT7HB83sYVF1E6LKM65FHT0dhTI2MpA30vicC1IgrxBdO69sbCqRzhNH1AgvPsT-vkWl8CT2LSNzHSLnKN51PhwpUAOy9HUCGjaNWy7fsu9ZuHZAkNc3UnxtPdn9KjsrKDOc3d8c0FEMv4p2a1b5B0mtywoDnzIuFq_z4TCuYCRxvLZlJYYw7UgsBiaLgdajBgWUflH_KfrGBdPlg2z91xyQjkTZFEso6jW8NZ0BxMLUfCbenR-57zJZCA8Tfz9Ds_hniLh5zolkRM27fJlzHV_eqp_sbHn8xAw2jZwDeDUwdYUraj4UqJXqVm00]--></g></svg>